<?xml version="1.0" standalone="no"?>
<!DOCTYPE svg PUBLIC "-//W3C//DTD SVG 20010904//EN"
 "http://www.w3.org/TR/2001/REC-SVG-20010904/DTD/svg10.dtd">
<svg version="1.0" xmlns="http://www.w3.org/2000/svg"
 width="289.000000pt" height="351.000000pt" viewBox="0 0 289.000000 351.000000"
 preserveAspectRatio="xMidYMid meet">

<g transform="translate(0.000000,351.000000) scale(0.100000,-0.100000)"
fill="#000000" stroke="none">
<path d="M1204 3495 c-33 -7 -88 -27 -122 -44 -34 -17 -66 -31 -72 -31 -13 0
-104 -64 -153 -106 -20 -19 -41 -34 -46 -34 -8 0 -93 -84 -178 -177 -68 -73
-129 -223 -156 -376 -16 -96 -15 -369 1 -375 7 -2 10 -8 6 -13 -3 -5 0 -9 6
-9 8 0 9 6 4 18 -16 30 -7 183 12 227 10 22 17 43 16 48 -1 4 2 7 8 7 5 0 12
17 15 38 6 35 32 102 58 147 6 11 19 35 29 54 9 18 23 41 31 50 7 9 29 43 47
76 45 82 74 118 118 148 45 30 111 42 118 22 5 -12 9 -12 22 2 16 15 17 15 20
0 3 -14 11 -17 47 -12 23 2 51 8 61 12 17 6 17 5 5 -10 -7 -9 -12 -17 -10 -18
40 -9 103 -11 139 -6 14 3 31 0 38 -6 8 -6 16 -6 25 2 8 6 23 9 35 6 13 -2 26
3 32 13 8 14 11 14 19 3 6 -10 10 -10 16 -1 4 6 18 15 31 20 13 5 24 16 24 24
0 8 8 14 19 13 15 -1 17 -4 9 -14 -8 -11 -7 -12 7 -7 14 6 16 3 11 -17 -6 -21
-5 -21 9 4 12 21 20 26 29 18 7 -6 17 -6 26 -1 10 6 26 2 48 -12 28 -17 40
-19 66 -11 18 6 42 6 55 2 20 -8 22 -6 15 14 -6 20 -5 21 11 7 16 -14 17 -13
11 8 -6 17 -4 21 7 16 9 -3 14 -16 12 -29 -2 -21 1 -23 16 -14 11 5 19 14 19
20 0 6 -5 7 -12 3 -7 -4 -8 -3 -4 5 6 9 11 9 21 1 8 -7 19 -9 24 -5 12 7 92
-35 133 -70 48 -41 158 -175 173 -212 14 -34 18 -49 17 -55 -1 -5 4 -8 12 -8
15 0 29 -37 15 -42 -12 -4 9 -78 22 -78 6 0 8 -10 4 -22 -4 -17 -4 -19 3 -9 8
11 11 9 17 -8 3 -12 10 -19 14 -17 13 8 68 -87 81 -141 8 -29 17 -50 21 -48 4
3 9 -8 12 -23 3 -15 1 -30 -4 -33 -6 -3 -6 -28 -1 -64 5 -32 6 -71 2 -85 -4
-15 -8 -85 -8 -156 -1 -176 -8 -232 -49 -354 -19 -58 -36 -112 -37 -120 -2 -8
-11 -14 -19 -12 -12 2 -15 -2 -10 -14 4 -12 3 -15 -5 -10 -7 4 -12 1 -12 -8 0
-8 -9 -18 -20 -21 -11 -3 -20 -12 -20 -19 0 -8 -7 -19 -15 -26 -13 -10 -15 -9
-16 11 l-1 24 -8 -25 -7 -25 -11 25 c-6 14 -11 18 -12 10 -1 -19 -43 -60 -62
-60 -10 0 -14 -10 -13 -29 1 -23 -2 -28 -14 -23 -14 5 -14 4 -2 -11 12 -15 12
-17 -4 -10 -15 5 -17 3 -12 -11 5 -11 3 -15 -5 -10 -7 5 -9 -1 -6 -20 3 -15 0
-33 -7 -39 -17 -17 14 -70 46 -77 15 -4 20 -8 12 -13 -7 -4 -9 -15 -6 -25 6
-14 4 -15 -9 -5 -8 7 -18 10 -21 6 -4 -3 -7 -1 -7 5 0 7 -4 12 -10 12 -6 0 -6
-10 0 -27 9 -26 9 -27 -5 -9 -14 19 -21 12 -16 -17 0 -4 -4 -7 -10 -7 -6 0 -9
-6 -6 -14 4 -10 -1 -13 -19 -11 -20 2 -23 -1 -19 -16 5 -15 1 -19 -15 -19 -18
0 -21 5 -17 32 2 22 -2 37 -12 46 -14 11 -14 11 3 6 16 -6 17 -5 6 15 -6 13
-9 25 -6 29 3 3 6 0 6 -8 0 -9 3 -10 13 -1 8 6 17 8 20 4 4 -3 7 3 7 13 0 11
-6 26 -12 32 -10 10 -10 15 2 22 12 8 12 10 -3 16 -9 3 -15 10 -12 14 3 5 -3
11 -14 15 -10 3 -21 15 -24 25 -3 13 -11 18 -20 14 -9 -3 -13 -12 -10 -20 3
-8 0 -14 -5 -14 -6 0 -13 9 -17 19 -3 10 -14 21 -25 24 -11 3 -23 13 -27 24
-4 10 -17 28 -30 40 -23 24 -39 31 -28 13 3 -5 1 -10 -4 -10 -6 0 -11 5 -11
10 0 6 -12 10 -26 10 -17 0 -23 -4 -18 -12 5 -9 2 -9 -9 1 -14 11 -17 11 -17
0 -1 -11 -3 -11 -13 1 -14 17 -38 20 -50 5 -5 -5 -5 1 -1 15 3 14 3 22 -1 18
-5 -4 -14 -3 -21 3 -21 17 5 36 93 69 17 6 34 21 37 33 3 12 4 22 3 23 -1 2
-32 -4 -67 -11 -36 -8 -80 -13 -98 -13 -22 1 -40 -8 -61 -28 -25 -25 -40 -30
-84 -32 -47 -2 -58 1 -88 28 -19 16 -46 30 -60 30 -14 0 -47 3 -73 6 -37 5
-46 4 -46 -8 0 -18 32 -48 51 -48 8 0 22 -9 32 -20 10 -12 22 -18 27 -15 6 3
7 -1 4 -9 -3 -9 -10 -16 -16 -16 -5 0 -6 5 -2 12 4 7 3 8 -4 4 -7 -4 -12 -15
-12 -25 0 -10 -7 -24 -15 -31 -11 -9 -15 -9 -15 -1 0 9 -6 8 -22 -1 -13 -7
-26 -11 -30 -10 -4 1 -14 -13 -22 -32 -8 -18 -19 -37 -26 -41 -7 -4 -4 5 6 21
18 27 18 28 1 21 -10 -4 -21 -7 -23 -7 -2 0 -4 -7 -4 -16 0 -10 -6 -14 -15
-10 -13 5 -19 -5 -16 -26 0 -4 -6 -5 -14 -2 -9 4 -21 1 -29 -5 -7 -6 -16 -8
-19 -4 -4 3 -13 0 -22 -7 -13 -11 -14 -10 -9 4 3 9 11 16 17 16 6 0 7 3 4 7
-4 3 -16 -2 -26 -11 -22 -20 -43 -13 -34 11 5 12 3 14 -7 8 -10 -6 -12 -3 -8
13 5 16 -1 24 -23 34 -16 7 -29 16 -29 19 0 4 -12 10 -26 13 -20 5 -32 2 -46
-14 -10 -11 -17 -24 -14 -29 11 -18 -27 -21 -40 -4 -7 10 -40 100 -74 201 -52
157 -62 201 -72 306 -8 86 -16 123 -25 123 -6 0 -10 -4 -6 -10 3 -5 7 -43 10
-85 5 -85 10 -142 13 -157 1 -5 2 -23 2 -38 1 -16 7 -31 14 -34 7 -2 10 -11 7
-19 -3 -8 0 -20 6 -27 10 -12 8 -68 -4 -127 -4 -19 -3 -21 4 -10 8 12 12 10
20 -10 5 -14 10 -19 10 -12 1 6 5 12 11 12 5 0 7 -7 3 -16 -4 -10 1 -22 11
-30 10 -7 15 -18 11 -24 -4 -6 -1 -19 7 -28 12 -15 11 -16 -5 -3 -9 7 -16 20
-15 27 2 7 -1 14 -7 16 -5 2 -11 -14 -13 -35 -2 -20 -7 -35 -13 -32 -5 4 -5
-3 0 -18 5 -14 7 -34 4 -46 -3 -12 -1 -21 6 -21 6 0 11 -6 11 -13 0 -19 37
-40 43 -24 4 9 6 9 6 0 1 -6 -4 -15 -9 -18 -12 -7 -14 -36 -2 -34 21 4 31 -3
29 -20 0 -11 -5 -17 -9 -15 -19 12 -6 -25 15 -40 14 -11 16 -15 5 -12 -18 5
-16 -5 8 -52 8 -16 14 -19 17 -10 3 7 5 -4 4 -25 0 -20 -4 -37 -9 -37 -5 0 -6
-5 -2 -12 5 -8 2 -9 -9 -5 -11 4 -17 1 -17 -9 0 -10 -6 -13 -18 -10 -13 5 -22
-1 -30 -19 -17 -37 -14 -43 7 -18 10 12 21 20 24 16 3 -3 18 4 33 16 25 20 51
20 39 0 -4 -5 -1 -9 4 -9 6 0 11 -5 11 -12 0 -6 8 -20 18 -31 9 -11 11 -17 5
-13 -7 4 -13 3 -13 -2 0 -6 7 -12 15 -16 8 -3 15 -16 15 -29 0 -13 5 -28 11
-34 7 -7 13 -33 15 -58 2 -26 8 -63 14 -83 5 -21 10 -53 10 -73 0 -20 3 -39 7
-43 8 -8 14 -32 17 -63 0 -11 4 -19 9 -16 4 2 7 -2 7 -9 0 -7 21 -56 46 -108
25 -52 55 -117 66 -145 24 -58 58 -98 85 -100 11 0 29 -11 41 -23 13 -13 27
-20 32 -17 6 4 10 2 10 -3 0 -5 12 -17 26 -27 l27 -17 -17 23 c-9 13 -16 32
-16 42 0 9 -7 20 -15 23 -8 4 -15 10 -15 16 0 5 6 6 13 3 6 -4 2 2 -10 12 -12
10 -27 31 -33 46 -5 16 -19 31 -30 34 -11 3 -20 9 -20 14 0 5 -7 9 -15 9 -10
0 -15 7 -13 18 2 9 -2 16 -8 15 -6 -1 -11 4 -11 12 0 21 26 5 43 -27 9 -16 18
-28 20 -25 8 8 -47 107 -58 107 -6 0 -4 -8 3 -18 13 -15 12 -16 -3 -4 -9 8
-14 20 -11 28 3 8 -1 14 -8 14 -12 0 -12 2 0 9 9 6 10 11 2 15 -6 4 -9 11 -6
16 3 5 1 11 -5 15 -16 10 -11 24 8 20 9 -2 21 -4 25 -4 5 -1 6 -4 4 -8 -3 -5
1 -14 9 -21 11 -10 14 -10 14 0 1 8 8 5 18 -8 10 -11 29 -24 43 -27 14 -4 31
-18 39 -31 7 -14 17 -23 22 -20 5 3 5 11 -1 18 -16 19 21 14 50 -7 20 -14 21
-16 4 -11 -11 3 3 -8 32 -26 38 -23 50 -35 46 -47 -4 -10 -2 -14 5 -10 15 10
64 -14 58 -29 -3 -7 3 -18 12 -26 11 -9 14 -10 8 0 -4 7 -2 12 6 12 9 0 9 3
-2 10 -8 5 -10 10 -4 10 6 0 17 -6 24 -14 6 -8 18 -12 26 -9 8 3 22 2 32 -2
31 -14 41 -13 54 3 11 13 10 15 -4 9 -9 -3 -19 -1 -22 6 -2 7 -5 3 -5 -8 -1
-16 -5 -14 -21 13 -22 35 -26 57 -10 47 6 -3 10 -1 10 4 0 6 -6 11 -14 11 -8
0 -13 8 -12 18 2 14 14 17 70 18 44 0 70 -4 77 -13 7 -7 16 -13 22 -13 6 0 4
6 -5 12 -9 7 -19 23 -22 34 -6 18 0 23 38 34 27 7 56 9 73 5 15 -5 31 -8 36
-7 14 4 7 -17 -10 -27 -10 -5 -14 -13 -9 -18 4 -4 15 2 23 14 18 26 33 30 33
8 0 -18 9 -19 33 -1 21 16 23 30 2 23 -8 -4 -17 -2 -20 4 -4 5 -11 7 -16 4 -5
-3 -6 1 -3 9 5 13 1 13 -25 3 -36 -13 -54 -1 -27 19 13 9 23 10 31 4 7 -6 16
-5 26 3 7 6 11 8 7 3 -4 -4 0 -15 8 -23 16 -16 24 -14 28 9 1 7 5 19 9 26 5 6
5 17 2 22 -3 6 -2 10 4 10 5 0 14 -8 20 -17 9 -17 10 -17 16 2 19 58 28 72 58
89 17 11 35 19 40 18 4 -1 6 3 5 9 -2 6 6 13 17 15 11 1 24 9 30 16 14 18 34
21 51 7 11 -9 14 -8 14 1 0 8 3 11 6 7 3 -3 27 6 52 19 l46 25 -25 -27 c-13
-15 -18 -24 -11 -20 6 4 12 2 12 -4 0 -6 5 -8 12 -4 14 9 -10 -26 -27 -38 -7
-5 -6 -8 0 -8 6 0 17 6 24 12 11 11 13 10 7 -5 -3 -10 -6 -23 -6 -28 0 -6 -5
-7 -12 -3 -7 5 -9 2 -5 -9 6 -16 -14 -41 -26 -32 -4 3 -5 2 -2 -2 3 -3 0 -12
-7 -20 -15 -18 -2 -29 16 -14 8 7 20 10 26 6 14 -8 -16 -45 -36 -45 -9 0 -12
-10 -9 -28 2 -20 -5 -39 -21 -58 l-23 -29 -1 29 c0 21 4 27 16 22 8 -3 12 -2
9 3 -3 5 -1 12 5 16 5 3 10 11 10 17 0 5 -11 0 -25 -13 -13 -13 -25 -32 -25
-42 0 -10 -4 -15 -10 -12 -5 3 -10 -1 -10 -10 0 -10 -5 -13 -12 -9 -6 4 -8 3
-5 -3 4 -6 0 -16 -8 -23 -8 -7 -15 -17 -15 -23 0 -6 6 -3 13 7 12 16 14 16 14
2 0 -8 -9 -18 -19 -22 -10 -3 -18 -10 -18 -15 0 -6 6 -7 13 -3 7 5 7 1 -3 -12
-22 -29 -24 -30 -17 -11 4 9 3 17 -2 17 -12 0 -41 -35 -41 -49 0 -8 -6 -11
-17 -7 -10 4 -14 4 -10 0 4 -4 1 -14 -6 -22 -10 -12 -6 -12 20 1 39 21 43 21
43 2 0 -9 -7 -18 -15 -21 -12 -5 -13 -10 -4 -20 14 -17 29 -9 29 17 0 11 4 18
9 15 5 -4 7 3 4 14 -3 12 4 28 22 44 28 26 45 26 45 0 0 -8 4 -14 10 -14 10 0
3 27 -14 49 -8 10 -8 15 1 18 7 2 9 12 6 21 -3 11 -2 13 4 6 10 -14 43 -14 43
0 0 6 9 17 21 24 19 12 19 11 9 -8 -6 -12 -10 -24 -7 -26 7 -7 53 91 87 186
20 54 37 129 48 207 9 68 20 119 25 116 5 -3 7 3 3 13 -3 11 -7 67 -8 126 -2
60 -5 108 -9 108 -11 0 0 93 12 100 16 10 20 71 5 89 -8 12 -8 13 2 7 9 -6 12
1 12 26 -2 34 6 82 17 108 9 22 9 20 17 75 12 78 12 80 -1 77 -7 -1 -13 3 -13
9 0 5 -5 7 -11 3 -8 -5 -8 -1 0 13 6 11 7 23 4 27 -3 3 2 6 12 6 15 0 16 -3 7
-12 -19 -19 -14 -30 9 -18 11 7 18 14 15 17 -3 4 7 14 24 24 26 16 29 22 20
44 -6 15 -6 24 -1 21 14 -9 20 57 6 74 -21 26 -29 44 -17 36 8 -5 12 0 12 13
0 12 5 21 10 21 6 0 9 3 9 8 -4 22 3 30 21 25 16 -4 20 0 20 19 0 33 -10 41
-26 20 -12 -15 -15 -15 -24 -2 -19 28 -12 70 14 81 19 9 25 21 30 66 7 56 29
113 45 113 9 0 29 -79 33 -128 1 -15 4 11 7 57 6 90 24 118 35 56 10 -53 26
-32 26 35 0 67 -7 90 -26 90 -14 0 -79 -62 -104 -100 -15 -22 -17 -22 -33 -5
-17 16 -15 52 3 65 15 11 18 39 5 44 -12 4 -13 33 -8 166 8 212 -17 475 -54
567 -36 90 -153 236 -215 269 -14 7 -32 20 -40 27 -8 8 -44 31 -81 50 -37 20
-86 49 -109 64 -60 38 -88 53 -103 53 -7 0 -29 11 -49 25 -50 34 -80 38 -311
41 -140 2 -218 -1 -261 -11z m1191 -1035 c3 -5 1 -10 -4 -10 -6 0 -11 5 -11
10 0 6 2 10 4 10 3 0 8 -4 11 -10z m-8 -612 c-3 -8 -6 -5 -6 6 -1 11 2 17 5
13 3 -3 4 -12 1 -19z m-1819 -258 c-2 -16 -1 -32 4 -34 5 -2 3 -3 -4 -2 -7 2
-13 8 -12 14 1 7 2 21 3 32 0 11 4 20 7 20 4 0 4 -13 2 -30z m870 -74 c3 -3
-3 -8 -12 -12 -13 -5 -14 -9 -5 -20 9 -11 8 -14 -5 -14 -9 0 -16 -7 -16 -16 0
-11 9 -15 38 -13 55 3 62 1 62 -17 0 -14 3 -14 15 -4 10 9 15 9 15 1 0 -6 5
-11 10 -11 6 0 10 6 10 14 0 8 5 18 12 22 6 4 8 3 4 -4 -3 -6 4 -18 16 -26 17
-12 25 -13 36 -4 17 14 44 20 37 8 -3 -5 -1 -11 5 -15 5 -3 10 -1 10 4 0 19
18 12 23 -10 4 -14 10 -18 19 -13 7 4 10 3 5 -1 -4 -5 1 -18 10 -29 15 -17 15
-18 1 -8 -9 7 -18 9 -20 5 -3 -4 -3 -2 -2 5 5 18 -14 15 -25 -5 -8 -14 -10
-15 -11 -3 0 13 -1 13 -10 0 -6 -9 -5 -17 3 -22 8 -5 5 -8 -8 -9 -11 -1 -25
-3 -32 -3 -6 -1 -15 -5 -19 -9 -12 -12 -26 -8 -18 6 5 9 4 9 -6 0 -7 -6 -19
-9 -28 -6 -10 4 -13 2 -8 -5 3 -6 -3 -13 -16 -16 -13 -3 27 -3 87 -1 109 3
205 -10 205 -28 0 -5 -9 -7 -19 -4 -12 3 -22 -1 -25 -9 -3 -8 -1 -14 4 -14 6
0 10 -7 10 -15 0 -8 3 -14 8 -14 4 1 18 0 32 -1 18 -2 20 -4 8 -7 -11 -3 -18
-14 -18 -26 1 -20 2 -20 11 -4 5 9 15 17 22 17 8 0 8 -3 2 -8 -19 -14 -35 -51
-28 -67 3 -10 8 -13 12 -6 4 5 6 -19 6 -55 -1 -42 -6 -68 -14 -73 -10 -7 -8
-12 7 -22 19 -14 19 -15 2 -48 -10 -21 -20 -30 -24 -22 -4 6 -1 11 6 11 7 0 2
7 -10 16 -17 11 -20 19 -13 28 13 16 4 27 -15 19 -11 -4 -11 -10 -2 -26 6 -12
16 -25 22 -29 7 -5 7 -8 -2 -8 -7 0 -10 -4 -7 -10 3 -5 -3 -30 -14 -55 -14
-31 -24 -43 -35 -39 -11 4 -13 0 -9 -18 3 -13 2 -20 -2 -16 -4 4 -14 0 -22
-10 -13 -15 -13 -15 -3 6 11 23 5 46 -10 37 -5 -3 -6 -13 -3 -22 5 -13 2 -15
-12 -9 -11 4 -25 0 -38 -11 -19 -17 -20 -17 -14 0 4 9 2 17 -3 17 -6 0 -10 -7
-10 -16 0 -14 -3 -14 -15 -4 -12 10 -15 9 -16 -6 -1 -17 -2 -17 -6 -1 -5 20
-16 21 -45 6 -15 -8 -19 -8 -14 0 4 6 2 11 -4 11 -6 0 -13 -6 -16 -14 -3 -8
-17 -22 -31 -31 -14 -10 -22 -12 -18 -5 5 8 0 11 -16 8 -14 -2 -23 -9 -21 -17
3 -12 0 -12 -12 -1 -9 7 -16 10 -16 6 0 -4 -11 1 -25 10 -24 15 -25 15 -26 -2
0 -14 -2 -15 -6 -4 -12 33 -25 41 -41 28 -13 -11 -14 -11 -7 1 6 11 4 13 -10
8 -9 -4 -24 -2 -32 5 -11 9 -19 9 -35 -1 -19 -12 -20 -11 -16 13 4 22 3 24 -9
14 -8 -6 -11 -18 -8 -26 4 -12 3 -13 -10 -2 -8 7 -15 10 -15 6 0 -3 -9 2 -20
11 -11 10 -20 23 -20 29 0 6 -9 14 -19 17 -22 5 -25 42 -7 66 9 11 7 13 -12 7
-23 -8 -31 7 -11 20 6 3 9 15 6 25 -4 13 0 19 11 20 12 0 10 3 -6 9 -12 5 -28
8 -35 6 -6 -1 -9 -1 -5 1 3 2 3 17 -2 33 -5 16 -6 39 -3 52 3 13 1 19 -4 13
-4 -5 -15 -16 -24 -23 -14 -11 -16 -9 -11 13 2 14 8 25 13 25 5 0 8 11 7 25
-1 14 -6 25 -10 25 -18 0 -6 28 17 40 14 7 25 18 25 23 0 6 -9 2 -20 -8 -18
-16 -20 -16 -20 -2 0 10 5 17 10 17 14 0 12 37 -2 43 -7 3 -3 6 10 6 13 1 20
5 17 11 -3 6 -1 10 5 10 6 0 10 -8 8 -17 -2 -10 3 -18 10 -19 6 -1 16 -2 20
-3 5 0 14 -11 21 -23 7 -15 10 -16 6 -4 -4 13 -1 17 10 12 8 -3 15 0 15 7 0
18 -13 33 -34 40 -33 13 -10 18 95 22 118 4 129 5 129 17 0 8 -31 11 -87 8
-33 -2 -78 21 -66 33 3 4 -1 7 -10 7 -9 0 -17 6 -17 13 0 9 -3 9 -9 -1 -12
-19 -45 -11 -50 13 -3 17 -1 18 13 6 10 -8 16 -9 16 -3 0 6 -8 16 -17 21 -10
6 -13 11 -8 11 6 0 16 -5 22 -11 7 -7 25 -9 50 -4 21 4 39 6 41 5 2 -1 12 8
22 20 15 17 23 19 38 11 13 -7 22 -7 31 2 7 7 26 13 44 14 18 0 38 2 45 2 6 1
12 9 12 18 0 13 -3 14 -12 5 -7 -7 -19 -12 -27 -12 -12 0 -12 3 -3 12 17 17
15 28 -5 21 -10 -3 -3 6 15 20 30 23 64 28 80 13z m229 -68 c-3 -7 -5 -2 -5
12 0 14 2 19 5 13 2 -7 2 -19 0 -25z m653 17 c0 -8 -4 -15 -10 -15 -5 0 -7 7
-4 15 4 8 8 15 10 15 2 0 4 -7 4 -15z m-1720 -45 c0 -5 -4 -10 -10 -10 -5 0
-10 5 -10 10 0 6 5 10 10 10 6 0 10 -4 10 -10z m1020 6 c0 -3 -4 -8 -10 -11
-5 -3 -10 -1 -10 4 0 6 5 11 10 11 6 0 10 -2 10 -4z m-994 -25 c0 -11 -4 -17
-8 -15 -7 5 -12 -10 -9 -28 0 -4 -9 -6 -20 -5 -19 1 -19 2 -3 14 10 7 14 13 9
13 -4 0 0 9 10 20 22 24 21 24 21 1z m347 -44 c3 -8 -1 -14 -8 -14 -7 0 -11 6
-8 14 3 7 6 13 8 13 2 0 5 -6 8 -13z m-98 -17 c-3 -5 -1 -10 6 -10 7 0 9 -3 6
-6 -3 -4 -1 -16 5 -28 10 -19 9 -19 -5 -8 -13 11 -16 10 -19 -5 -2 -10 -2 -26
0 -36 4 -15 7 -16 13 -5 7 11 11 10 19 -2 13 -19 13 -40 0 -40 -5 0 -8 6 -7
13 2 6 -1 2 -7 -11 -12 -26 -32 -24 -28 4 2 16 1 16 -7 4 -5 -8 -13 -12 -16
-8 -4 3 1 18 10 32 10 14 13 26 8 26 -13 0 -12 62 1 77 13 15 30 17 21 3z
m1009 -6 c3 -8 2 -12 -4 -9 -6 3 -10 10 -10 16 0 14 7 11 14 -7z m151 -44 c3
-6 -1 -7 -9 -4 -18 7 -21 14 -7 14 6 0 13 -4 16 -10z m-1128 -122 c-3 -8 -6
-5 -6 6 -1 11 2 17 5 13 3 -3 4 -12 1 -19z m53 -12 c0 -7 -6 -13 -14 -13 -8 0
-11 8 -8 19 5 19 22 15 22 -6z m977 -42 c-3 -3 -12 -4 -19 -1 -8 3 -5 6 6 6
11 1 17 -2 13 -5z m-1210 -29 c0 -8 -6 -16 -14 -19 -11 -4 -11 -1 -3 14 13 24
17 25 17 5z m268 -95 c-3 -5 -12 -10 -18 -10 -7 0 -6 4 3 10 19 12 23 12 15 0z
m245 -260 c0 -5 -2 -10 -4 -10 -3 0 -8 5 -11 10 -3 6 -1 10 4 10 6 0 11 -4 11
-10z m330 0 c0 -5 -2 -10 -4 -10 -3 0 -8 5 -11 10 -3 6 -1 10 4 10 6 0 11 -4
11 -10z m519 -6 c-10 -12 -10 -17 0 -23 9 -6 0 -15 -29 -30 -47 -24 -75 -28
-43 -6 14 10 20 21 16 32 -4 11 -3 14 5 9 7 -4 22 2 34 13 26 25 36 27 17 5z
m39 -16 c-2 -5 -8 -9 -13 -9 -5 0 -11 4 -13 9 -1 5 4 9 13 9 9 0 14 -4 13 -9z
m12 -23 c-7 -8 -17 -15 -23 -15 -6 0 -18 -7 -28 -16 -11 -9 -19 -11 -23 -5 -6
10 26 33 52 37 8 1 16 5 20 8 12 13 14 5 2 -9z m-290 -159 c0 -3 -4 -8 -10
-11 -5 -3 -10 -1 -10 4 0 6 5 11 10 11 6 0 10 -2 10 -4z m315 -16 c-17 -19
-41 -18 -29 1 3 5 9 7 14 4 5 -3 11 -1 15 5 3 5 9 10 12 10 3 0 -2 -9 -12 -20z
m-732 -147 c-7 -2 -21 -2 -30 0 -10 3 -4 5 12 5 17 0 24 -2 18 -5z m-39 -34
c4 -4 -3 -6 -17 -6 -20 0 -23 2 -14 12 7 7 14 10 17 7 3 -4 9 -10 14 -13z"/>
<path d="M1720 1261 c-8 -6 -17 -8 -21 -5 -4 2 -13 -4 -20 -13 -12 -14 -11
-15 11 -8 14 4 32 13 40 21 16 16 12 18 -10 5z"/>
<path d="M1050 1135 c0 -8 -5 -15 -11 -15 -8 0 -8 -5 1 -15 7 -8 21 -15 32
-15 11 0 28 -5 39 -10 24 -13 24 -9 -1 20 -11 13 -20 29 -20 37 0 7 -9 13 -20
13 -11 0 -20 -7 -20 -15z"/>
<path d="M1671 1110 c3 -35 -2 -60 -12 -57 -6 1 -12 -8 -14 -20 -2 -28 3 -29
21 -5 12 15 15 15 23 2 6 -8 13 -11 17 -7 4 4 -1 16 -11 27 -9 10 -15 25 -12
33 3 8 1 20 -4 28 -8 12 -10 12 -8 -1z"/>
<path d="M1601 1093 c7 -7 6 -14 -2 -19 -8 -4 -9 -3 -5 4 11 17 -20 15 -52 -4
-21 -12 -23 -13 -9 -1 11 9 14 18 8 21 -5 4 -17 -4 -25 -16 -9 -12 -16 -16
-16 -9 0 8 -7 11 -20 8 -11 -3 -20 -2 -20 2 0 4 -18 7 -40 7 -30 1 -40 -3 -40
-15 -1 -14 -2 -14 -13 -1 -17 21 -37 23 -37 5 0 -12 -4 -13 -18 -6 -10 5 -34
8 -55 6 -20 -2 -37 0 -37 4 0 4 -6 8 -12 9 -7 1 -26 3 -43 4 -26 3 -30 0 -30
-19 0 -13 3 -23 8 -23 4 0 7 -6 7 -14 0 -7 11 -25 25 -40 29 -31 33 -51 9 -42
-14 5 -15 4 -5 -8 7 -8 20 -12 28 -9 10 4 14 2 10 -4 -3 -5 0 -10 8 -10 8 0
14 3 13 6 -3 30 17 39 34 16 4 -5 15 -2 26 9 13 11 22 13 26 7 9 -14 36 -2 36
15 0 8 4 14 8 14 5 0 6 14 4 31 -3 22 -1 30 7 25 6 -4 9 -11 6 -16 -3 -4 2
-23 10 -41 l14 -34 -3 45 c-2 25 -1 33 1 17 3 -17 9 -25 15 -21 8 5 9 1 4 -12
-4 -10 -4 -15 0 -11 4 4 13 -1 20 -11 12 -15 12 -14 7 7 l-6 24 24 -24 c13
-13 23 -27 22 -31 -2 -4 7 -12 20 -18 21 -11 21 -10 3 4 -11 9 -15 16 -8 16 8
0 9 7 2 26 -6 14 -10 27 -10 29 0 8 31 -3 43 -15 10 -11 8 -11 -8 0 -20 14
-20 14 -1 -7 23 -28 36 -21 37 20 2 31 2 31 6 4 3 -16 10 -26 16 -24 7 2 11
11 9 19 -1 8 5 28 13 44 8 16 15 25 15 20 0 -5 7 -3 15 4 8 7 15 17 15 22 0 6
-6 6 -14 -1 -12 -10 -14 -9 -10 6 4 14 -1 18 -20 18 -17 0 -22 -3 -15 -12z
m-254 -55 c-3 -8 -6 -5 -6 6 -1 11 2 17 5 13 3 -3 4 -12 1 -19z m1 -22 c13 4
13 3 -2 -6 -11 -8 -14 -15 -8 -19 7 -4 8 -12 2 -21 -8 -13 -10 -12 -10 3 0 9
-8 18 -17 18 -16 1 -17 2 -1 6 9 2 16 10 14 16 -1 7 -1 9 1 5 2 -4 12 -5 21
-2z m139 -28 c-3 -8 -6 -5 -6 6 -1 11 2 17 5 13 3 -3 4 -12 1 -19z"/>
<path d="M1708 1068 c-5 -12 -1 -21 12 -28 14 -7 20 -7 20 0 0 5 -4 10 -9 10
-5 0 -11 8 -13 18 -3 16 -4 16 -10 0z"/>
<path d="M1815 1020 c3 -5 8 -10 11 -10 2 0 4 5 4 10 0 6 -5 10 -11 10 -5 0
-7 -4 -4 -10z"/>
<path d="M1297 931 c-4 -17 -3 -21 5 -13 5 5 8 16 6 23 -3 8 -7 3 -11 -10z"/>
<path d="M1767 879 c4 -13 8 -18 11 -10 2 7 -1 18 -6 23 -8 8 -9 4 -5 -13z"/>
<path d="M1930 2415 c10 -12 10 -15 -1 -15 -8 0 -2 -11 14 -25 16 -14 22 -25
14 -25 -7 0 -22 8 -33 18 -23 22 -64 34 -64 20 0 -6 -11 -7 -26 -4 -21 6 -25
4 -21 -8 5 -13 2 -13 -20 -5 -14 5 -28 7 -31 4 -3 -2 -11 0 -19 6 -10 9 -13 8
-13 0 0 -7 -6 -11 -12 -10 -38 5 -70 -4 -89 -23 -13 -14 -20 -17 -17 -8 4 11
-1 16 -17 15 -25 0 -57 -23 -50 -35 3 -4 -2 -10 -10 -14 -8 -3 -12 -11 -9 -19
3 -8 -2 -20 -11 -27 -17 -14 -20 -40 -5 -40 6 0 9 -5 8 -12 -6 -27 38 -10 150
59 12 8 20 19 16 25 -4 6 -3 8 3 5 5 -3 27 -1 49 4 85 21 246 27 252 10 2 -7
12 -7 29 0 13 5 30 6 36 2 7 -4 5 1 -3 11 -8 11 -16 14 -18 7 -2 -6 -8 -11
-13 -11 -6 0 -8 4 -4 9 3 5 1 12 -5 16 -5 3 -10 15 -10 26 0 11 -4 17 -10 14
-5 -3 -10 -3 -10 2 0 4 -14 16 -32 26 -24 14 -28 15 -18 2z m31 -32 c13 -16
12 -17 -3 -4 -10 7 -18 15 -18 17 0 8 8 3 21 -13z m-84 -18 c0 -8 -4 -12 -9
-9 -5 3 -6 10 -3 15 9 13 12 11 12 -6z m-287 -24 c0 -5 -7 -11 -15 -15 -15 -5
-20 5 -8 17 9 10 23 9 23 -2z"/>
<path d="M743 2359 c-18 -12 -33 -25 -33 -31 0 -5 -4 -7 -9 -4 -5 3 -14 -8
-20 -26 -12 -34 -15 -75 -4 -65 3 4 15 -1 26 -10 18 -17 19 -17 16 2 -3 16 1
19 19 18 12 -2 22 1 22 6 0 4 12 6 26 3 16 -3 25 -1 21 5 -6 10 77 9 152 -2
85 -13 190 -55 229 -92 7 -7 18 -13 24 -13 6 0 8 -3 5 -6 -4 -4 -19 2 -34 12
-21 13 -51 19 -118 21 -61 2 -84 0 -70 -6 18 -9 17 -10 -8 -10 -17 -1 -26 3
-22 9 7 12 -11 9 -105 -17 -65 -18 -121 -45 -139 -67 -9 -10 -22 -14 -37 -10
-19 5 -23 3 -18 -10 3 -8 22 -18 42 -21 21 -4 54 -12 75 -20 26 -10 46 -11 63
-5 30 12 32 23 2 16 -13 -3 -17 -3 -11 0 8 3 11 15 7 30 -5 19 -1 26 17 33 20
7 28 3 52 -25 44 -52 108 -38 122 26 8 36 27 38 73 10 18 -11 39 -20 48 -20
11 0 13 -6 9 -21 -6 -19 -5 -20 8 -8 14 12 12 17 -14 44 -39 41 -37 46 10 28
30 -12 40 -22 46 -47 l7 -31 13 43 c9 29 10 53 4 74 -5 18 -6 34 -4 37 9 9
-27 40 -41 34 -10 -4 -14 4 -14 28 0 26 3 30 10 19 8 -12 10 -11 10 7 0 12 -5
25 -12 29 -7 4 -8 3 -4 -4 10 -17 -6 -15 -32 4 -12 8 -22 11 -22 6 0 -6 -10
-5 -24 1 -16 8 -21 14 -13 19 7 4 -6 7 -28 7 -22 -1 -57 1 -77 3 -21 3 -38 1
-38 -3 0 -13 -154 -3 -158 10 -5 15 -12 14 -49 -10z m427 -70 c0 -5 -4 -9 -8
-9 -5 0 -9 7 -9 15 0 8 4 12 9 9 4 -3 8 -9 8 -15z m-180 -157 c0 -13 -12 -22
-22 -16 -10 6 -1 24 13 24 5 0 9 -4 9 -8z"/>
<path d="M637 2349 c4 -16 8 -17 14 -7 13 19 11 28 -5 28 -9 0 -12 -7 -9 -21z"/>
<path d="M2010 2366 c0 -2 7 -7 16 -10 8 -3 12 -2 9 4 -6 10 -25 14 -25 6z"/>
<path d="M485 2303 c4 -10 9 -33 12 -50 8 -46 19 -33 15 16 -2 23 -10 42 -19
45 -11 5 -13 2 -8 -11z"/>
<path d="M510 2189 c0 -14 -5 -30 -11 -36 -7 -7 -7 -22 -1 -44 9 -33 9 -32 16
29 5 35 5 66 2 69 -3 4 -6 -5 -6 -18z"/>
<path d="M1620 2184 c-82 -38 -120 -80 -90 -99 6 -4 9 -3 8 2 -5 16 23 53 40
53 10 0 24 6 32 13 8 6 5 0 -8 -14 -12 -14 -22 -28 -22 -31 0 -12 60 10 86 31
33 26 72 27 81 4 10 -30 45 -63 66 -63 11 0 34 15 52 34 24 26 38 33 54 29 15
-4 20 -11 16 -21 -6 -17 26 -44 40 -32 5 4 34 13 63 20 28 6 55 16 58 21 6 11
-48 36 -121 55 -32 9 -72 12 -112 8 -46 -5 -67 -3 -80 7 -11 9 -14 10 -9 2 5
-10 -3 -13 -31 -12 -38 1 -38 1 -8 9 27 7 26 8 -15 9 -29 0 -64 -8 -100 -25z
m70 -4 c-19 -12 -30 -12 -30 -1 0 10 31 20 40 14 2 -2 -2 -8 -10 -13z m130
-10 c0 -5 -4 -10 -10 -10 -5 0 -10 5 -10 10 0 6 5 10 10 10 6 0 10 -4 10 -10z"/>
<path d="M1520 2149 c0 -5 5 -7 10 -4 6 3 10 8 10 11 0 2 -4 4 -10 4 -5 0 -10
-5 -10 -11z"/>
<path d="M1285 2120 c-3 -5 -1 -10 4 -10 6 0 11 5 11 10 0 6 -2 10 -4 10 -3 0
-8 -4 -11 -10z"/>
<path d="M406 2078 c9 -57 36 -118 52 -118 7 0 10 5 7 10 -3 6 -1 10 5 10 14
0 9 93 -5 98 -6 2 -17 9 -25 16 -36 31 -41 29 -34 -16z"/>
<path d="M1638 2083 c6 -2 18 -2 25 0 6 3 1 5 -13 5 -14 0 -19 -2 -12 -5z"/>
<path d="M1015 2000 c3 -5 8 -10 11 -10 2 0 4 5 4 10 0 6 -5 10 -11 10 -5 0
-7 -4 -4 -10z"/>
<path d="M1758 1993 c7 -3 16 -2 19 1 4 3 -2 6 -13 5 -11 0 -14 -3 -6 -6z"/>
<path d="M2524 1953 c2 -3 -2 -21 -10 -40 -22 -51 -11 -51 12 1 15 31 17 43 7
43 -7 0 -11 -2 -9 -4z"/>
<path d="M2468 1813 c-17 -20 -38 -58 -38 -70 0 -7 11 7 45 60 20 30 16 36 -7
10z"/>
<path d="M2171 1604 c0 -11 3 -14 6 -6 3 7 2 16 -1 19 -3 4 -6 -2 -5 -13z"/>
<path d="M707 1509 c4 -13 8 -18 11 -10 2 7 -1 18 -6 23 -8 8 -9 4 -5 -13z"/>
<path d="M741 884 c0 -11 3 -14 6 -6 3 7 2 16 -1 19 -3 4 -6 -2 -5 -13z"/>
<path d="M493 810 c-34 -14 -28 -21 7 -9 17 6 30 13 30 15 0 6 -12 4 -37 -6z"/>
<path d="M2013 592 c0 -8 8 -10 21 -6 35 10 39 21 8 20 -16 -1 -29 -7 -29 -14z"/>
<path d="M1954 555 c-10 -8 -14 -15 -8 -15 6 0 17 7 24 15 16 19 9 19 -16 0z"/>
<path d="M2050 452 c-21 -17 -21 -18 -2 -18 11 0 18 4 16 8 -3 4 4 8 16 8 12
0 18 5 15 10 -9 14 -20 12 -45 -8z"/>
<path d="M987 428 c7 -8 10 -17 8 -20 -3 -3 7 -13 22 -23 20 -13 24 -14 16 -3
-7 8 -10 17 -8 20 3 3 -7 13 -22 23 -20 13 -24 14 -16 3z"/>
<path d="M1810 409 c0 -5 5 -7 10 -4 6 3 10 8 10 11 0 2 -4 4 -10 4 -5 0 -10
-5 -10 -11z"/>
<path d="M1626 379 c-52 -12 -57 -19 -12 -16 19 2 41 8 48 15 7 7 10 12 8 11
-3 -1 -23 -5 -44 -10z"/>
<path d="M1069 366 c13 -16 51 -41 51 -33 0 2 -15 14 -32 27 -21 15 -28 17
-19 6z"/>
<path d="M1740 332 c9 -19 14 -21 26 -11 8 6 14 14 14 17 0 3 -5 1 -12 -6 -9
-9 -15 -7 -25 6 -13 15 -13 14 -3 -6z"/>
<path d="M1705 330 c-3 -5 1 -10 10 -10 9 0 13 5 10 10 -3 6 -8 10 -10 10 -2
0 -7 -4 -10 -10z"/>
<path d="M1955 320 c-3 -6 1 -7 9 -4 18 7 21 14 7 14 -6 0 -13 -4 -16 -10z"/>
<path d="M1665 300 c-3 -5 -2 -10 4 -10 5 0 13 5 16 10 3 6 2 10 -4 10 -5 0
-13 -4 -16 -10z"/>
<path d="M1700 280 c-8 -5 -11 -12 -8 -16 10 -9 38 3 38 16 0 12 -10 13 -30 0z"/>
<path d="M2090 250 c-6 -11 -9 -26 -7 -33 3 -7 10 1 16 17 14 35 7 47 -9 16z"/>
<path d="M1280 253 c0 -5 11 -13 25 -20 29 -13 33 -6 8 13 -20 15 -33 18 -33
7z"/>
<path d="M1645 224 l-40 -13 50 6 c56 6 62 8 43 15 -7 3 -31 -1 -53 -8z"/>
<path d="M1560 219 c0 -5 5 -7 10 -4 6 3 10 8 10 11 0 2 -4 4 -10 4 -5 0 -10
-5 -10 -11z"/>
<path d="M1150 180 c0 -5 5 -10 11 -10 5 0 7 5 4 10 -3 6 -8 10 -11 10 -2 0
-4 -4 -4 -10z"/>
<path d="M1200 184 c0 -5 7 -19 15 -30 8 -10 15 -14 15 -8 0 5 -7 19 -15 30
-8 10 -15 14 -15 8z"/>
<path d="M1448 183 c7 -3 16 -2 19 1 4 3 -2 6 -13 5 -11 0 -14 -3 -6 -6z"/>
<path d="M2051 164 c0 -11 3 -14 6 -6 3 7 2 16 -1 19 -3 4 -6 -2 -5 -13z"/>
<path d="M1630 142 c0 -11 -7 -18 -20 -18 -11 0 -20 4 -20 8 0 10 -76 -28 -85
-42 -10 -16 -45 -12 -63 8 -10 9 -14 13 -9 8 12 -17 8 -29 -6 -17 -8 6 -18 7
-22 3 -5 -4 -5 -2 -2 4 4 7 -1 18 -11 25 -15 13 -16 12 -3 -3 8 -11 9 -18 3
-18 -6 0 -9 -6 -6 -13 3 -8 15 -13 27 -13 13 1 21 -4 20 -11 -2 -7 4 -13 12
-13 8 0 14 -6 13 -12 -2 -8 10 -14 28 -16 27 -3 31 0 30 20 -1 16 5 23 19 25
11 2 14 0 7 -3 -20 -9 -3 -24 31 -25 18 -1 24 -3 15 -6 -18 -4 -26 -23 -10
-23 16 0 52 32 47 41 -4 5 5 20 19 34 22 22 23 25 7 25 -14 0 -17 6 -13 25 2
14 2 25 -2 25 -3 0 -6 -8 -6 -18z m-35 -48 c-25 -10 -27 -14 -12 -19 23 -10
22 -25 -3 -25 -15 0 -19 5 -16 23 3 12 5 25 5 28 1 4 13 6 29 6 l27 0 -30 -13z"/>
<path d="M1987 140 c-23 -34 -21 -44 4 -19 11 11 19 25 17 31 -3 7 -12 1 -21
-12z"/>
<path d="M1057 134 c-4 -4 -2 -15 4 -26 6 -11 13 -17 16 -14 3 3 15 1 27 -5
21 -10 21 -10 1 6 -11 8 -25 22 -31 30 -6 8 -14 12 -17 9z"/>
<path d="M1860 130 c-9 -6 -10 -10 -3 -10 6 0 15 5 18 10 8 12 4 12 -15 0z"/>
<path d="M1320 121 c0 -6 4 -13 10 -16 6 -3 7 1 4 9 -7 18 -14 21 -14 7z"/>
<path d="M1895 110 c-3 -5 -2 -10 4 -10 5 0 13 5 16 10 3 6 2 10 -4 10 -5 0
-13 -4 -16 -10z"/>
<path d="M2514 105 c-28 -8 -100 -21 -159 -29 -108 -15 -125 -23 -125 -59 0
-18 9 -19 131 -15 73 3 134 9 137 15 4 5 23 9 42 9 22 -1 34 3 33 11 -2 8 6 9
27 3 22 -6 28 -5 24 2 -5 7 -1 9 9 5 11 -4 17 -1 17 8 0 7 5 17 12 21 8 5 9 2
4 -11 -5 -15 -4 -16 8 -6 15 13 11 40 -8 53 -17 12 -96 8 -152 -7z"/>
<path d="M1936 78 c3 -4 9 -8 15 -8 5 0 9 4 9 8 0 5 -7 9 -15 9 -8 0 -12 -4
-9 -9z"/>
</g>
</svg>
